<?xml version="1.0" encoding="utf-8"?>
<!-- Generator: Adobe Illustrator 20.0.0, SVG Export Plug-In . SVG Version: 6.00 Build 0)  -->
<svg version="1.1" id="Ebene_1" xmlns="http://www.w3.org/2000/svg" xmlns:xlink="http://www.w3.org/1999/xlink" x="0px" y="0px"
	 viewBox="0 0 235 62" style="enable-background:new 0 0 235 62;" xml:space="preserve">
<style type="text/css">
	.st0{opacity:0.7;}
	.st1{fill:#FFFFFF;fill-opacity:0.7;}
</style>
<g class="st0">
	<path class="st1" d="M93.2,31.5l-3.9-0.9c-1.5-0.4-3.2-0.8-3.2-2.3s1.2-2.5,3.4-2.5c4.4,0,4,3.1,6.2,3.1c1.1,0,2.1-0.7,2.1-1.9
		c0-2.8-4.3-4.9-8-4.9c-4,0-8.2,1.7-8.2,6.4c0,2.2,0.8,4.7,5,5.8l5.3,1.4c1.6,0.4,2,1.3,2,2.2c0,1.4-1.4,2.8-3.8,2.8
		c-4.8,0-4.1-3.8-6.7-3.8c-1.1,0-2,0.8-2,2c0,2.3,2.7,5.3,8.6,5.3c5.7,0,8.5-2.9,8.5-6.7C98.6,35.1,97.5,32.5,93.2,31.5z"/>
	<path class="st1" d="M75.5,22.3c-1.4,0-2.4,1-2.4,2.4v17c0,1.4,0.9,2.4,2.4,2.4c1.4,0,2.4-1,2.4-2.4v-17
		C77.8,23.3,76.9,22.3,75.5,22.3z"/>
	<path class="st1" d="M36.4,22.5c-2.2-1.1-4.8-0.2-5.9,2.1l-14.9,31c-1.1,2.2-0.2,4.9,2,6c2.2,1.1,4.8,0.2,5.9-2.1l14.9-31
		C39.5,26.2,38.6,23.5,36.4,22.5z"/>
	<path class="st1" d="M33.8,0.5c-2.2-1.1-4.8-0.2-5.9,2.1L12.9,34l0,0l0,0l-4.5-9.4c-1.1-2.2-3.7-3.1-5.9-2.1s-3.1,3.8-2,6l8.5,17.6
		c0,0,0,0.1,0.1,0.1c0,0,0-0.1-0.1-0.2c0,0,0,0.1,0.1,0.2c0.1,0.1,0.2,0.3,0.3,0.4c0.1,0.1,0.1,0.2,0.2,0.3c0.1,0.1,0.2,0.2,0.3,0.3
		c0.1,0.1,0.2,0.2,0.3,0.3c0.1,0.1,0.2,0.2,0.3,0.2c0.1,0.1,0.3,0.2,0.4,0.3c0.1,0,0.2,0.1,0.4,0.2c0.1,0,0.3,0.1,0.4,0.2
		s0.3,0.1,0.4,0.1c0.1,0,0.3,0,0.4,0c0.1,0,0.3,0,0.4,0c0.1,0,0.3,0,0.4,0c0.1,0,0.3,0,0.4,0c0.1,0,0.3,0,0.4-0.1
		c0.1,0,0.3-0.1,0.4-0.2c0.1,0,0.3-0.1,0.4-0.2c0.1-0.1,0.3-0.2,0.4-0.3c0.1-0.1,0.2-0.1,0.3-0.2c0.1-0.1,0.2-0.2,0.3-0.3
		c0.1-0.1,0.2-0.2,0.3-0.3c0.1-0.1,0.1-0.2,0.2-0.3c0.1-0.1,0.2-0.3,0.3-0.4l0,0c0,0,0-0.1,0.1-0.1l19-39.6
		C36.8,4.2,36,1.5,33.8,0.5z"/>
	<path class="st1" d="M117.8,22.3c-1.4,0-2.4,1-2.4,2.4v11.5c0,2.9-1.6,4.2-4.3,4.2s-4.3-1.3-4.3-4.2V24.7c0-1.4-0.9-2.4-2.4-2.4
		c-1.4,0-2.4,1-2.4,2.4v11.1c0,5.8,3.5,8.4,9,8.4s9-2.6,9-8.4V24.7C120.2,23.3,119.3,22.3,117.8,22.3z"/>
	<path class="st1" d="M69.6,22.4c-1.3-0.6-2.5-0.2-3.2,1.1l-6.1,12.8l-6.1-12.8c-0.6-1.3-1.8-1.7-3.2-1.1c-1.3,0.6-1.7,1.9-1.1,3.2
		l8.2,17.1c0,0,0,0.1,0.1,0.1c0,0,0,0,0,0c0.4,0.8,1.2,1.3,2,1.2h0h0c0.8,0,1.5-0.4,2-1.2c0,0,0,0,0,0c0,0,0-0.1,0.1-0.1l8.2-17.1
		C71.3,24.3,70.9,23,69.6,22.4z"/>
	<path class="st1" d="M193.2,39.9h-9.3v-5.1h8c1.2,0,2.2-0.4,2.2-1.8c0-1.5-1-1.8-2.2-1.8h-8v-4.6h9.1c1.4,0,2.4-0.4,2.4-1.9
		c0-1.5-1-1.9-2.4-1.9h-11.1c-1.7,0-2.8,0.7-2.8,2.8V41c0,2.1,1.1,2.8,2.8,2.8h11.3c1.4,0,2.4-0.4,2.4-1.9
		C195.5,40.3,194.5,39.9,193.2,39.9z"/>
	<path class="st1" d="M210,31.5l-3.9-0.9c-1.5-0.4-3.2-0.8-3.2-2.3s1.2-2.5,3.4-2.5c4.4,0,4,3.1,6.2,3.1c1.1,0,2.1-0.7,2.1-1.9
		c0-2.8-4.3-4.9-8-4.9c-4,0-8.2,1.7-8.2,6.4c0,2.2,0.8,4.7,5,5.8l5.3,1.4c1.6,0.4,2,1.3,2,2.2c0,1.4-1.4,2.8-3.8,2.8
		c-4.8,0-4.1-3.8-6.7-3.8c-1.1,0-2,0.8-2,2c0,2.3,2.7,5.3,8.6,5.3c5.7,0,8.5-2.9,8.5-6.7C215.5,35.1,214.4,32.5,210,31.5z"/>
	<path class="st1" d="M135.2,24.8c0-0.2-0.1-0.4-0.2-0.5c-0.4-1.2-1.4-2.1-2.8-2.1c-1.1,0-2.1,0.7-2.6,1.6c-0.1,0.2-0.3,0.4-0.4,0.7
		l-6.1,15.6c-0.2,0.4-0.4,1.3-0.4,1.8c0,1.3,0.9,2.1,2.2,2.1c1.1,0,1.8-0.4,2.1-1.3l1.2-3.5h7.6l1.2,3.5c0.4,0.9,1.1,1.3,2.1,1.3
		c1.2,0,2.2-0.9,2.2-2.1c0-0.5-0.3-1.4-0.4-1.8L135.2,24.8z M129.2,36l2.8-7.2h0l2.7,7.2C134.8,36,129.2,36,129.2,36z"/>
	<path class="st1" d="M232.5,22.6H219c-1.4,0-2.5,0.7-2.5,2c0,1.3,1.1,2,2.5,2h4.4v15c0,1.4,0.9,2.4,2.4,2.4c1.4,0,2.4-1,2.4-2.4
		v-15h4.4c1.4,0,2.5-0.7,2.5-2C235,23.4,233.9,22.6,232.5,22.6z"/>
	<path class="st1" d="M175.4,22.4c-1.3-0.6-2.5-0.2-3.2,1.1l-6.1,12.8L160,23.5c-0.6-1.3-1.8-1.7-3.2-1.1c-1.3,0.6-1.7,1.9-1.1,3.2
		l8.2,17.1c0,0,0,0.1,0.1,0.1c0,0,0,0,0,0c0.4,0.8,1.2,1.3,2,1.2h0h0c0.8,0,1.5-0.4,2-1.2c0,0,0,0,0,0c0,0,0-0.1,0.1-0.1l8.2-17.1
		C177.1,24.3,176.7,23,175.4,22.4z"/>
	<path class="st1" d="M156.9,39.7h-7.8v-15c0-1.4-0.9-2.4-2.4-2.4c-1.4,0-2.4,1-2.4,2.4v16.2c0,2.1,1.1,2.8,2.8,2.8h9.8
		c1.4,0,2.5-0.7,2.5-2C159.4,40.4,158.3,39.7,156.9,39.7z"/>
</g>
</svg>
